<svg xmlns="http://www.w3.org/2000/svg" xmlns:xlink="http://www.w3.org/1999/xlink" width="1000" zoomAndPan="magnify" viewBox="0 0 750 749.999995" height="1000" preserveAspectRatio="xMidYMid meet" version="1.0"><defs><clipPath id="456c4a840b"><path d="M 327 195.703125 L 346 195.703125 L 346 252 L 327 252 Z M 327 195.703125 " clip-rule="nonzero"/></clipPath><clipPath id="bab99674bd"><path d="M 195.703125 327 L 252 327 L 252 346 L 195.703125 346 Z M 195.703125 327 " clip-rule="nonzero"/></clipPath></defs><path fill="#212121" d="M 374.96875 0 C 478.519531 0 572.257812 41.96875 640.113281 109.824219 C 707.976562 177.6875 749.945312 271.429688 749.945312 374.96875 C 749.945312 478.507812 707.976562 572.257812 640.113281 640.113281 C 572.257812 707.976562 478.519531 749.945312 374.96875 749.945312 C 271.429688 749.945312 177.6875 707.976562 109.824219 640.113281 C 41.96875 572.257812 0 478.507812 0 374.96875 C 0 271.429688 41.96875 177.6875 109.824219 109.824219 C 177.6875 41.96875 271.429688 0 374.96875 0 Z M 610.65625 139.289062 C 550.347656 78.96875 467.011719 41.660156 374.96875 41.660156 C 282.933594 41.660156 199.601562 78.96875 139.289062 139.289062 C 78.96875 199.601562 41.660156 282.925781 41.660156 374.96875 C 41.660156 467.011719 78.96875 550.347656 139.289062 610.65625 C 199.601562 670.976562 282.933594 708.285156 374.96875 708.285156 C 467.011719 708.285156 550.347656 670.976562 610.65625 610.65625 C 670.976562 550.347656 708.285156 467.011719 708.285156 374.96875 C 708.285156 282.925781 670.976562 199.601562 610.65625 139.289062 " fill-opacity="1" fill-rule="nonzero"/><path fill="#000000" d="M 535.09375 289.222656 C 535.113281 284.25 534.648438 279.324219 533.699219 274.441406 C 532.746094 269.558594 531.328125 264.816406 529.441406 260.214844 C 527.558594 255.609375 525.242188 251.238281 522.492188 247.089844 C 519.746094 242.945312 516.621094 239.105469 513.117188 235.578125 C 512.222656 234.726562 511.308594 233.894531 510.375 233.085938 C 509.441406 232.277344 508.488281 231.492188 507.519531 230.726562 C 506.546875 229.964844 505.558594 229.226562 504.554688 228.507812 C 503.546875 227.792969 502.523438 227.101562 501.484375 226.433594 C 500.445312 225.765625 499.390625 225.125 498.324219 224.507812 C 497.253906 223.886719 496.167969 223.296875 495.070312 222.730469 C 493.972656 222.164062 492.863281 221.625 491.742188 221.113281 C 490.617188 220.601562 489.480469 220.113281 488.335938 219.65625 C 487.1875 219.195312 486.03125 218.765625 484.867188 218.363281 C 483.699219 217.957031 482.523438 217.582031 481.335938 217.234375 C 480.152344 216.886719 478.960938 216.566406 477.761719 216.277344 C 476.558594 215.984375 475.351562 215.722656 474.140625 215.488281 C 472.929688 215.253906 471.710938 215.050781 470.488281 214.875 C 469.265625 214.699219 468.039062 214.550781 466.8125 214.433594 C 465.582031 214.316406 464.351562 214.230469 463.117188 214.171875 C 461.882812 214.113281 460.648438 214.082031 459.414062 214.082031 C 458.179688 214.082031 456.945312 214.113281 455.710938 214.171875 C 454.476562 214.230469 453.246094 214.316406 452.015625 214.433594 C 450.789062 214.550781 449.5625 214.699219 448.339844 214.875 C 447.117188 215.050781 445.898438 215.253906 444.6875 215.488281 C 443.472656 215.722656 442.269531 215.984375 441.066406 216.277344 C 439.867188 216.566406 438.675781 216.886719 437.492188 217.234375 C 436.304688 217.582031 435.128906 217.957031 433.960938 218.363281 C 432.796875 218.765625 431.636719 219.195312 430.492188 219.65625 C 429.34375 220.113281 428.210938 220.601562 427.085938 221.113281 C 425.964844 221.625 424.851562 222.164062 423.753906 222.730469 C 422.65625 223.296875 421.574219 223.886719 420.503906 224.507812 C 419.433594 225.125 418.382812 225.765625 417.34375 226.433594 C 416.304688 227.101562 415.28125 227.792969 414.273438 228.507812 C 413.269531 229.226562 412.28125 229.964844 411.308594 230.726562 C 410.339844 231.492188 409.386719 232.277344 408.453125 233.085938 C 407.519531 233.894531 406.605469 234.726562 405.710938 235.578125 L 379.621094 261.660156 C 379.214844 262.085938 378.855469 262.550781 378.539062 263.046875 C 378.222656 263.542969 377.957031 264.066406 377.742188 264.613281 C 377.527344 265.160156 377.367188 265.722656 377.261719 266.304688 C 377.15625 266.882812 377.109375 267.464844 377.117188 268.054688 C 377.125 268.640625 377.1875 269.222656 377.308594 269.800781 C 377.429688 270.375 377.601562 270.9375 377.832031 271.476562 C 378.058594 272.019531 378.335938 272.535156 378.667969 273.023438 C 378.996094 273.511719 379.367188 273.964844 379.78125 274.382812 C 380.199219 274.796875 380.652344 275.167969 381.140625 275.5 C 381.628906 275.828125 382.140625 276.105469 382.683594 276.335938 C 383.226562 276.5625 383.785156 276.738281 384.363281 276.859375 C 384.9375 276.980469 385.519531 277.042969 386.109375 277.050781 C 386.695312 277.058594 387.28125 277.011719 387.859375 276.90625 C 388.4375 276.800781 389 276.640625 389.550781 276.425781 C 390.097656 276.210938 390.621094 275.945312 391.117188 275.632812 C 391.613281 275.316406 392.074219 274.953125 392.503906 274.550781 L 418.59375 248.464844 C 419.929688 247.132812 421.332031 245.867188 422.792969 244.671875 C 424.253906 243.476562 425.769531 242.355469 427.34375 241.308594 C 428.914062 240.261719 430.535156 239.292969 432.199219 238.40625 C 433.867188 237.519531 435.574219 236.714844 437.316406 235.992188 C 439.0625 235.273438 440.839844 234.640625 442.648438 234.09375 C 444.457031 233.546875 446.285156 233.089844 448.136719 232.722656 C 449.992188 232.359375 451.855469 232.082031 453.734375 231.898438 C 455.613281 231.714844 457.5 231.625 459.386719 231.625 C 461.277344 231.628906 463.160156 231.722656 465.039062 231.910156 C 466.917969 232.09375 468.78125 232.375 470.636719 232.742188 C 472.488281 233.113281 474.316406 233.570312 476.121094 234.121094 C 477.929688 234.667969 479.707031 235.304688 481.449219 236.03125 C 483.195312 236.753906 484.898438 237.558594 486.5625 238.449219 C 488.230469 239.339844 489.847656 240.3125 491.417969 241.359375 C 492.984375 242.410156 494.5 243.535156 495.960938 244.730469 C 497.421875 245.929688 498.816406 247.195312 500.152344 248.53125 C 501.488281 249.867188 502.753906 251.265625 503.953125 252.722656 C 505.152344 254.183594 506.273438 255.699219 507.324219 257.269531 C 508.375 258.839844 509.34375 260.457031 510.234375 262.121094 C 511.125 263.785156 511.933594 265.492188 512.65625 267.234375 C 513.378906 268.980469 514.015625 270.753906 514.5625 272.5625 C 515.113281 274.367188 515.574219 276.199219 515.941406 278.050781 C 516.3125 279.902344 516.589844 281.765625 516.777344 283.644531 C 516.960938 285.523438 517.054688 287.410156 517.058594 289.296875 C 517.058594 291.1875 516.96875 293.070312 516.785156 294.949219 C 516.601562 296.828125 516.328125 298.695312 515.960938 300.546875 C 515.59375 302.398438 515.136719 304.230469 514.589844 306.039062 C 514.046875 307.84375 513.414062 309.621094 512.691406 311.367188 C 511.972656 313.113281 511.167969 314.820312 510.28125 316.484375 C 509.390625 318.152344 508.425781 319.769531 507.378906 321.34375 C 506.332031 322.914062 505.210938 324.429688 504.011719 325.890625 C 502.816406 327.355469 501.554688 328.753906 500.21875 330.089844 L 434.058594 396.257812 C 432.71875 397.59375 431.320312 398.859375 429.859375 400.058594 C 428.394531 401.253906 426.878906 402.375 425.304688 403.425781 C 423.734375 404.472656 422.113281 405.441406 420.445312 406.332031 C 418.777344 407.222656 417.070312 408.027344 415.324219 408.75 C 413.578125 409.472656 411.800781 410.105469 409.992188 410.65625 C 408.183594 411.203125 406.351562 411.660156 404.5 412.027344 C 402.644531 412.394531 400.777344 412.671875 398.898438 412.859375 C 397.015625 413.042969 395.132812 413.136719 393.242188 413.136719 C 391.351562 413.136719 389.46875 413.042969 387.585938 412.859375 C 385.707031 412.671875 383.839844 412.394531 381.984375 412.027344 C 380.132812 411.660156 378.300781 411.203125 376.492188 410.65625 C 374.683594 410.105469 372.90625 409.472656 371.160156 408.75 C 369.410156 408.027344 367.703125 407.222656 366.039062 406.332031 C 364.371094 405.441406 362.75 404.472656 361.179688 403.425781 C 359.605469 402.375 358.089844 401.253906 356.625 400.058594 C 355.164062 398.859375 353.765625 397.59375 352.425781 396.257812 C 346.734375 390.574219 342.398438 383.992188 339.414062 376.523438 C 339.1875 375.96875 338.914062 375.441406 338.585938 374.941406 C 338.257812 374.441406 337.882812 373.976562 337.464844 373.550781 C 337.046875 373.125 336.589844 372.742188 336.097656 372.40625 C 335.601562 372.070312 335.078125 371.78125 334.53125 371.550781 C 333.980469 371.316406 333.410156 371.136719 332.824219 371.015625 C 332.242188 370.890625 331.648438 370.828125 331.050781 370.820312 C 330.453125 370.816406 329.859375 370.867188 329.273438 370.980469 C 328.683594 371.089844 328.113281 371.257812 327.558594 371.480469 C 327.003906 371.703125 326.476562 371.980469 325.976562 372.304688 C 325.476562 372.632812 325.011719 373.007812 324.582031 373.425781 C 324.15625 373.84375 323.773438 374.300781 323.4375 374.792969 C 323.097656 375.285156 322.8125 375.808594 322.578125 376.359375 C 322.34375 376.90625 322.164062 377.476562 322.042969 378.0625 C 321.917969 378.644531 321.855469 379.238281 321.847656 379.835938 C 321.839844 380.433594 321.890625 381.027344 322.003906 381.613281 C 322.113281 382.203125 322.277344 382.773438 322.5 383.328125 C 324.433594 388.164062 326.835938 392.757812 329.707031 397.109375 C 332.574219 401.457031 335.851562 405.472656 339.535156 409.152344 C 340.433594 410.003906 341.347656 410.832031 342.28125 411.640625 C 343.214844 412.445312 344.167969 413.230469 345.136719 413.992188 C 346.109375 414.753906 347.097656 415.492188 348.105469 416.207031 C 349.113281 416.921875 350.136719 417.613281 351.175781 418.28125 C 352.214844 418.945312 353.269531 419.585938 354.335938 420.203125 C 355.40625 420.820312 356.492188 421.410156 357.589844 421.976562 C 358.6875 422.539062 359.796875 423.078125 360.921875 423.589844 C 362.042969 424.101562 363.179688 424.585938 364.324219 425.042969 C 365.472656 425.503906 366.628906 425.933594 367.796875 426.335938 C 368.960938 426.738281 370.136719 427.113281 371.324219 427.460938 C 372.507812 427.808594 373.699219 428.128906 374.898438 428.417969 C 376.101562 428.707031 377.304688 428.96875 378.519531 429.203125 C 379.730469 429.4375 380.949219 429.640625 382.171875 429.816406 C 383.390625 429.992188 384.617188 430.136719 385.847656 430.253906 C 387.074219 430.371094 388.308594 430.460938 389.539062 430.519531 C 390.773438 430.578125 392.007812 430.605469 393.242188 430.605469 C 394.476562 430.605469 395.710938 430.578125 396.941406 430.519531 C 398.175781 430.460938 399.40625 430.371094 400.636719 430.253906 C 401.863281 430.136719 403.089844 429.992188 404.3125 429.816406 C 405.535156 429.640625 406.75 429.4375 407.964844 429.203125 C 409.175781 428.96875 410.382812 428.707031 411.582031 428.417969 C 412.78125 428.128906 413.976562 427.808594 415.160156 427.460938 C 416.34375 427.113281 417.519531 426.738281 418.6875 426.335938 C 419.855469 425.933594 421.011719 425.503906 422.15625 425.042969 C 423.304688 424.585938 424.4375 424.101562 425.5625 423.589844 C 426.683594 423.078125 427.796875 422.539062 428.894531 421.976562 C 429.992188 421.410156 431.074219 420.820312 432.144531 420.203125 C 433.214844 419.585938 434.269531 418.945312 435.308594 418.28125 C 436.347656 417.613281 437.371094 416.921875 438.378906 416.207031 C 439.382812 415.492188 440.371094 414.753906 441.34375 413.992188 C 442.316406 413.230469 443.269531 412.445312 444.203125 411.640625 C 445.136719 410.832031 446.050781 410.003906 446.945312 409.152344 L 513.109375 342.984375 C 516.617188 339.445312 519.75 335.601562 522.503906 331.445312 C 525.253906 327.292969 527.574219 322.90625 529.460938 318.296875 C 531.347656 313.683594 532.765625 308.929688 533.710938 304.039062 C 534.660156 299.144531 535.121094 294.207031 535.09375 289.222656 Z M 535.09375 289.222656 " fill-opacity="1" fill-rule="nonzero"/><path fill="#000000" d="M 213.644531 459.414062 C 213.617188 464.390625 214.078125 469.320312 215.023438 474.207031 C 215.96875 479.09375 217.382812 483.839844 219.261719 488.449219 C 221.144531 493.054688 223.457031 497.433594 226.203125 501.585938 C 228.949219 505.734375 232.074219 509.578125 235.574219 513.113281 C 236.460938 513.984375 237.363281 514.828125 238.289062 515.65625 C 239.214844 516.480469 240.160156 517.28125 241.125 518.0625 C 242.089844 518.839844 243.074219 519.59375 244.074219 520.328125 C 245.074219 521.058594 246.09375 521.765625 247.128906 522.445312 C 248.164062 523.128906 249.214844 523.785156 250.285156 524.417969 C 251.351562 525.046875 252.433594 525.652344 253.53125 526.230469 C 254.625 526.808594 255.738281 527.359375 256.859375 527.882812 C 257.984375 528.410156 259.121094 528.90625 260.265625 529.375 C 261.414062 529.84375 262.574219 530.285156 263.742188 530.699219 C 264.910156 531.113281 266.089844 531.496094 267.277344 531.851562 C 268.464844 532.207031 269.660156 532.535156 270.863281 532.832031 C 272.066406 533.132812 273.277344 533.398438 274.496094 533.640625 C 275.710938 533.878906 276.933594 534.089844 278.160156 534.269531 C 279.386719 534.449219 280.617188 534.597656 281.851562 534.71875 C 283.085938 534.839844 284.320312 534.929688 285.558594 534.988281 C 286.796875 535.046875 288.039062 535.078125 289.277344 535.078125 C 290.515625 535.078125 291.757812 535.046875 292.996094 534.988281 C 294.234375 534.929688 295.46875 534.839844 296.703125 534.71875 C 297.9375 534.597656 299.167969 534.449219 300.394531 534.269531 C 301.621094 534.089844 302.84375 533.878906 304.058594 533.640625 C 305.277344 533.398438 306.484375 533.132812 307.691406 532.832031 C 308.894531 532.535156 310.089844 532.207031 311.277344 531.851562 C 312.464844 531.496094 313.644531 531.113281 314.8125 530.699219 C 315.980469 530.285156 317.140625 529.84375 318.285156 529.375 C 319.433594 528.90625 320.570312 528.410156 321.695312 527.882812 C 322.816406 527.359375 323.925781 526.808594 325.023438 526.230469 C 326.121094 525.652344 327.203125 525.046875 328.269531 524.417969 C 329.335938 523.785156 330.390625 523.128906 331.425781 522.445312 C 332.460938 521.765625 333.476562 521.058594 334.480469 520.328125 C 335.480469 519.59375 336.464844 518.839844 337.429688 518.0625 C 338.394531 517.28125 339.335938 516.480469 340.261719 515.65625 C 341.1875 514.828125 342.09375 513.984375 342.980469 513.113281 L 369.164062 486.933594 C 369.570312 486.507812 369.929688 486.046875 370.242188 485.550781 C 370.558594 485.050781 370.820312 484.53125 371.035156 483.984375 C 371.25 483.433594 371.410156 482.871094 371.511719 482.292969 C 371.617188 481.714844 371.667969 481.132812 371.660156 480.542969 C 371.648438 479.957031 371.585938 479.375 371.464844 478.800781 C 371.34375 478.226562 371.171875 477.667969 370.941406 477.125 C 370.714844 476.582031 370.433594 476.070312 370.105469 475.582031 C 369.777344 475.09375 369.40625 474.640625 368.992188 474.226562 C 368.574219 473.808594 368.125 473.4375 367.636719 473.109375 C 367.148438 472.78125 366.632812 472.503906 366.09375 472.273438 C 365.550781 472.046875 364.992188 471.871094 364.417969 471.75 C 363.84375 471.628906 363.261719 471.5625 362.671875 471.554688 C 362.085938 471.546875 361.503906 471.59375 360.925781 471.699219 C 360.347656 471.804688 359.78125 471.964844 359.234375 472.175781 C 358.6875 472.390625 358.164062 472.652344 357.667969 472.96875 C 357.171875 473.28125 356.710938 473.640625 356.28125 474.046875 L 330.097656 500.226562 C 328.757812 501.558594 327.359375 502.824219 325.898438 504.019531 C 324.4375 505.21875 322.921875 506.339844 321.347656 507.386719 C 319.777344 508.433594 318.15625 509.402344 316.492188 510.289062 C 314.824219 511.179688 313.117188 511.984375 311.371094 512.703125 C 309.628906 513.425781 307.851562 514.058594 306.042969 514.605469 C 304.234375 515.152344 302.40625 515.609375 300.550781 515.976562 C 298.699219 516.339844 296.832031 516.617188 294.953125 516.800781 C 293.074219 516.984375 291.1875 517.074219 289.300781 517.074219 C 287.414062 517.074219 285.527344 516.980469 283.648438 516.792969 C 281.769531 516.605469 279.902344 516.328125 278.050781 515.957031 C 276.199219 515.589844 274.371094 515.128906 272.5625 514.582031 C 270.753906 514.03125 268.980469 513.394531 267.234375 512.671875 C 265.492188 511.949219 263.785156 511.140625 262.121094 510.25 C 260.453125 509.359375 258.835938 508.390625 257.265625 507.339844 C 255.695312 506.292969 254.179688 505.167969 252.722656 503.96875 C 251.261719 502.769531 249.863281 501.503906 248.527344 500.167969 C 247.191406 498.832031 245.925781 497.433594 244.726562 495.976562 C 243.53125 494.515625 242.40625 493 241.355469 491.429688 C 240.308594 489.859375 239.335938 488.242188 238.445312 486.578125 C 237.554688 484.910156 236.75 483.207031 236.023438 481.460938 C 235.300781 479.71875 234.664062 477.941406 234.117188 476.132812 C 233.566406 474.328125 233.109375 472.496094 232.738281 470.644531 C 232.367188 468.792969 232.089844 466.929688 231.90625 465.046875 C 231.71875 463.167969 231.625 461.285156 231.625 459.394531 C 231.621094 457.507812 231.714844 455.625 231.898438 453.742188 C 232.082031 451.863281 232.355469 449.996094 232.722656 448.144531 C 233.089844 446.292969 233.546875 444.460938 234.09375 442.65625 C 234.640625 440.847656 235.273438 439.070312 235.992188 437.324219 C 236.714844 435.578125 237.519531 433.871094 238.40625 432.207031 C 239.296875 430.539062 240.261719 428.921875 241.3125 427.347656 C 242.359375 425.777344 243.480469 424.261719 244.675781 422.796875 C 245.871094 421.335938 247.136719 419.9375 248.46875 418.601562 L 314.632812 352.433594 C 315.476562 351.589844 316.347656 350.777344 317.246094 349.992188 C 318.140625 349.207031 319.058594 348.445312 320.003906 347.71875 C 320.945312 346.988281 321.910156 346.289062 322.894531 345.617188 C 323.878906 344.949219 324.886719 344.308594 325.910156 343.699219 C 326.9375 343.09375 327.980469 342.515625 329.039062 341.972656 C 330.101562 341.429688 331.179688 340.917969 332.269531 340.441406 C 333.363281 339.964844 334.46875 339.519531 335.589844 339.113281 C 336.707031 338.703125 337.839844 338.328125 338.984375 337.992188 C 340.125 337.652344 341.277344 337.347656 342.4375 337.082031 C 343.601562 336.8125 344.769531 336.582031 345.945312 336.386719 C 347.121094 336.191406 348.300781 336.03125 349.488281 335.90625 C 350.671875 335.785156 351.863281 335.699219 353.054688 335.648438 C 354.242188 335.601562 355.433594 335.585938 356.628906 335.613281 C 357.820312 335.636719 359.007812 335.695312 360.195312 335.792969 C 361.386719 335.894531 362.570312 336.027344 363.75 336.199219 C 364.929688 336.367188 366.101562 336.574219 367.269531 336.820312 C 368.4375 337.0625 369.59375 337.339844 370.742188 337.65625 C 371.894531 337.972656 373.03125 338.320312 374.160156 338.707031 C 375.289062 339.09375 376.402344 339.511719 377.503906 339.964844 C 378.609375 340.417969 379.695312 340.90625 380.765625 341.429688 C 381.839844 341.949219 382.894531 342.503906 383.933594 343.089844 C 384.96875 343.675781 385.988281 344.292969 386.988281 344.945312 C 387.988281 345.59375 388.964844 346.273438 389.925781 346.980469 C 390.882812 347.691406 391.816406 348.429688 392.730469 349.199219 C 393.640625 349.964844 394.527344 350.761719 395.390625 351.582031 C 396.253906 352.40625 397.089844 353.253906 397.902344 354.128906 C 398.714844 355 399.496094 355.898438 400.25 356.820312 C 401.007812 357.742188 401.730469 358.6875 402.429688 359.65625 C 403.125 360.625 403.792969 361.609375 404.429688 362.621094 C 405.0625 363.628906 405.667969 364.65625 406.238281 365.699219 C 406.8125 366.746094 407.351562 367.808594 407.859375 368.886719 C 408.367188 369.964844 408.839844 371.058594 409.277344 372.167969 C 409.5 372.722656 409.777344 373.253906 410.101562 373.753906 C 410.429688 374.253906 410.804688 374.71875 411.222656 375.148438 C 411.640625 375.574219 412.097656 375.957031 412.59375 376.296875 C 413.085938 376.636719 413.609375 376.921875 414.160156 377.15625 C 414.710938 377.390625 415.277344 377.570312 415.867188 377.691406 C 416.453125 377.816406 417.042969 377.878906 417.640625 377.886719 C 418.242188 377.894531 418.835938 377.839844 419.421875 377.730469 C 420.011719 377.621094 420.585938 377.453125 421.140625 377.230469 C 421.695312 377.003906 422.222656 376.730469 422.726562 376.402344 C 423.226562 376.074219 423.691406 375.699219 424.117188 375.28125 C 424.546875 374.863281 424.929688 374.40625 425.265625 373.910156 C 425.601562 373.414062 425.890625 372.894531 426.125 372.34375 C 426.359375 371.789062 426.535156 371.222656 426.660156 370.636719 C 426.78125 370.050781 426.84375 369.457031 426.851562 368.859375 C 426.855469 368.261719 426.804688 367.667969 426.691406 367.078125 C 426.582031 366.488281 426.414062 365.917969 426.1875 365.363281 C 425.609375 363.90625 424.988281 362.46875 424.320312 361.050781 C 423.652344 359.636719 422.941406 358.238281 422.1875 356.867188 C 421.433594 355.492188 420.636719 354.144531 419.800781 352.820312 C 418.960938 351.496094 418.085938 350.195312 417.167969 348.925781 C 416.25 347.65625 415.292969 346.414062 414.300781 345.203125 C 413.304688 343.992188 412.277344 342.8125 411.210938 341.667969 C 410.140625 340.519531 409.042969 339.40625 407.90625 338.324219 C 406.769531 337.246094 405.601562 336.203125 404.402344 335.195312 C 403.203125 334.1875 401.972656 333.21875 400.710938 332.285156 C 399.453125 331.355469 398.164062 330.460938 396.851562 329.609375 C 395.535156 328.757812 394.195312 327.949219 392.832031 327.179688 C 391.464844 326.410156 390.078125 325.683594 388.667969 325 C 387.257812 324.316406 385.828125 323.675781 384.378906 323.078125 C 382.929688 322.484375 381.464844 321.933594 379.980469 321.429688 C 378.496094 320.925781 377 320.464844 375.488281 320.054688 C 373.976562 319.640625 372.453125 319.277344 370.917969 318.957031 C 369.382812 318.640625 367.84375 318.367188 366.292969 318.144531 C 364.742188 317.921875 363.183594 317.746094 361.621094 317.621094 C 360.058594 317.492188 358.496094 317.414062 356.929688 317.382812 C 355.363281 317.351562 353.796875 317.371094 352.230469 317.4375 C 350.667969 317.503906 349.105469 317.617188 347.546875 317.78125 C 345.988281 317.941406 344.433594 318.152344 342.890625 318.414062 C 341.34375 318.671875 339.808594 318.976562 338.28125 319.332031 C 336.753906 319.683594 335.242188 320.082031 333.738281 320.53125 C 332.238281 320.976562 330.75 321.46875 329.28125 322.007812 C 327.808594 322.546875 326.355469 323.132812 324.917969 323.757812 C 323.484375 324.386719 322.070312 325.058594 320.675781 325.773438 C 319.28125 326.492188 317.910156 327.25 316.5625 328.050781 C 315.21875 328.851562 313.894531 329.691406 312.601562 330.574219 C 311.304688 331.453125 310.039062 332.375 308.800781 333.335938 C 307.5625 334.296875 306.355469 335.292969 305.179688 336.328125 C 304 337.363281 302.859375 338.433594 301.746094 339.539062 L 235.585938 405.707031 C 232.082031 409.242188 228.957031 413.085938 226.210938 417.238281 C 223.464844 421.390625 221.152344 425.769531 219.269531 430.375 C 217.386719 434.984375 215.972656 439.730469 215.027344 444.617188 C 214.078125 449.503906 213.621094 454.4375 213.644531 459.414062 Z M 213.644531 459.414062 " fill-opacity="1" fill-rule="nonzero"/><path fill="#000000" d="M 295.71875 282.835938 L 248.460938 235.582031 C 248.035156 235.167969 247.574219 234.804688 247.078125 234.480469 C 246.578125 234.160156 246.054688 233.890625 245.507812 233.671875 C 244.957031 233.453125 244.390625 233.289062 243.808594 233.179688 C 243.226562 233.070312 242.640625 233.015625 242.050781 233.023438 C 241.457031 233.027344 240.871094 233.089844 240.292969 233.207031 C 239.714844 233.328125 239.148438 233.503906 238.605469 233.730469 C 238.058594 233.960938 237.539062 234.238281 237.046875 234.570312 C 236.558594 234.898438 236.101562 235.273438 235.683594 235.691406 C 235.265625 236.109375 234.890625 236.566406 234.5625 237.054688 C 234.230469 237.546875 233.953125 238.066406 233.722656 238.613281 C 233.496094 239.15625 233.320312 239.71875 233.203125 240.300781 C 233.082031 240.878906 233.019531 241.464844 233.015625 242.058594 C 233.007812 242.648438 233.0625 243.234375 233.171875 243.816406 C 233.28125 244.398438 233.445312 244.964844 233.664062 245.515625 C 233.882812 246.0625 234.152344 246.585938 234.472656 247.085938 C 234.796875 247.582031 235.160156 248.042969 235.574219 248.46875 L 282.835938 295.71875 C 283.265625 296.132812 283.726562 296.503906 284.226562 296.832031 C 284.726562 297.160156 285.25 297.433594 285.804688 297.660156 C 286.355469 297.882812 286.925781 298.050781 287.507812 298.167969 C 288.09375 298.28125 288.683594 298.339844 289.28125 298.339844 C 289.878906 298.339844 290.46875 298.28125 291.054688 298.167969 C 291.636719 298.050781 292.207031 297.882812 292.757812 297.660156 C 293.3125 297.433594 293.835938 297.160156 294.335938 296.832031 C 294.835938 296.503906 295.296875 296.132812 295.726562 295.71875 C 296.148438 295.296875 296.523438 294.835938 296.855469 294.335938 C 297.1875 293.839844 297.46875 293.316406 297.695312 292.761719 C 297.925781 292.210938 298.097656 291.640625 298.214844 291.054688 C 298.332031 290.464844 298.386719 289.875 298.386719 289.277344 C 298.386719 288.679688 298.328125 288.085938 298.210938 287.5 C 298.09375 286.914062 297.921875 286.34375 297.691406 285.792969 C 297.464844 285.238281 297.183594 284.714844 296.851562 284.21875 C 296.519531 283.71875 296.140625 283.257812 295.71875 282.835938 Z M 295.71875 282.835938 " fill-opacity="1" fill-rule="nonzero"/><g clip-path="url(#456c4a840b)"><path fill="#000000" d="M 345.648438 242.019531 L 345.648438 204.210938 C 345.648438 203.613281 345.589844 203.019531 345.472656 202.433594 C 345.359375 201.84375 345.183594 201.273438 344.957031 200.722656 C 344.726562 200.167969 344.445312 199.644531 344.113281 199.144531 C 343.78125 198.648438 343.402344 198.1875 342.980469 197.765625 C 342.558594 197.34375 342.097656 196.964844 341.597656 196.632812 C 341.101562 196.300781 340.574219 196.019531 340.023438 195.789062 C 339.46875 195.558594 338.898438 195.386719 338.3125 195.269531 C 337.726562 195.152344 337.132812 195.09375 336.535156 195.09375 C 335.9375 195.09375 335.34375 195.152344 334.757812 195.269531 C 334.171875 195.386719 333.601562 195.558594 333.046875 195.789062 C 332.496094 196.019531 331.96875 196.300781 331.472656 196.632812 C 330.972656 196.964844 330.511719 197.34375 330.089844 197.765625 C 329.667969 198.1875 329.289062 198.648438 328.957031 199.144531 C 328.625 199.644531 328.34375 200.167969 328.113281 200.722656 C 327.886719 201.273438 327.710938 201.84375 327.597656 202.433594 C 327.480469 203.019531 327.421875 203.613281 327.421875 204.210938 L 327.421875 242.019531 C 327.421875 242.617188 327.480469 243.210938 327.597656 243.796875 C 327.710938 244.386719 327.886719 244.957031 328.113281 245.507812 C 328.34375 246.0625 328.625 246.585938 328.957031 247.082031 C 329.289062 247.582031 329.667969 248.042969 330.089844 248.464844 C 330.511719 248.886719 330.972656 249.265625 331.472656 249.597656 C 331.96875 249.929688 332.496094 250.210938 333.046875 250.441406 C 333.601562 250.667969 334.171875 250.84375 334.757812 250.960938 C 335.34375 251.074219 335.9375 251.132812 336.535156 251.132812 C 337.132812 251.132812 337.726562 251.074219 338.3125 250.960938 C 338.898438 250.84375 339.46875 250.667969 340.023438 250.441406 C 340.574219 250.210938 341.101562 249.929688 341.597656 249.597656 C 342.097656 249.265625 342.558594 248.886719 342.980469 248.464844 C 343.402344 248.042969 343.78125 247.582031 344.113281 247.082031 C 344.445312 246.585938 344.726562 246.0625 344.957031 245.507812 C 345.183594 244.957031 345.359375 244.386719 345.472656 243.796875 C 345.589844 243.210938 345.648438 242.617188 345.648438 242.019531 Z M 345.648438 242.019531 " fill-opacity="1" fill-rule="nonzero"/></g><g clip-path="url(#bab99674bd)"><path fill="#000000" d="M 204.210938 345.648438 L 242.019531 345.648438 C 242.617188 345.648438 243.210938 345.589844 243.796875 345.472656 C 244.386719 345.359375 244.957031 345.183594 245.507812 344.957031 C 246.0625 344.726562 246.585938 344.445312 247.082031 344.113281 C 247.582031 343.78125 248.042969 343.402344 248.464844 342.980469 C 248.886719 342.558594 249.265625 342.097656 249.597656 341.597656 C 249.929688 341.101562 250.210938 340.574219 250.441406 340.023438 C 250.667969 339.46875 250.84375 338.898438 250.960938 338.3125 C 251.074219 337.726562 251.132812 337.132812 251.132812 336.535156 C 251.132812 335.9375 251.074219 335.34375 250.960938 334.757812 C 250.84375 334.171875 250.667969 333.601562 250.441406 333.046875 C 250.210938 332.496094 249.929688 331.96875 249.597656 331.472656 C 249.265625 330.972656 248.886719 330.511719 248.464844 330.089844 C 248.042969 329.667969 247.582031 329.289062 247.082031 328.957031 C 246.585938 328.625 246.0625 328.34375 245.507812 328.113281 C 244.957031 327.886719 244.386719 327.710938 243.796875 327.597656 C 243.210938 327.480469 242.617188 327.421875 242.019531 327.421875 L 204.210938 327.421875 C 203.613281 327.421875 203.019531 327.480469 202.433594 327.597656 C 201.84375 327.710938 201.273438 327.886719 200.722656 328.113281 C 200.167969 328.34375 199.644531 328.625 199.144531 328.957031 C 198.648438 329.289062 198.1875 329.667969 197.765625 330.089844 C 197.34375 330.511719 196.964844 330.972656 196.632812 331.472656 C 196.300781 331.96875 196.019531 332.496094 195.789062 333.046875 C 195.558594 333.601562 195.386719 334.171875 195.269531 334.757812 C 195.152344 335.34375 195.09375 335.9375 195.09375 336.535156 C 195.09375 337.132812 195.152344 337.726562 195.269531 338.3125 C 195.386719 338.898438 195.558594 339.46875 195.789062 340.023438 C 196.019531 340.574219 196.300781 341.101562 196.632812 341.597656 C 196.964844 342.097656 197.34375 342.558594 197.765625 342.980469 C 198.1875 343.402344 198.648438 343.78125 199.144531 344.113281 C 199.644531 344.445312 200.167969 344.726562 200.722656 344.957031 C 201.273438 345.183594 201.84375 345.359375 202.433594 345.472656 C 203.019531 345.589844 203.613281 345.648438 204.210938 345.648438 Z M 204.210938 345.648438 " fill-opacity="1" fill-rule="nonzero"/></g><path fill="#000000" d="M 465.855469 452.972656 C 465.425781 452.574219 464.964844 452.21875 464.46875 451.910156 C 463.972656 451.601562 463.449219 451.339844 462.90625 451.128906 C 462.359375 450.921875 461.796875 450.765625 461.222656 450.664062 C 460.644531 450.5625 460.066406 450.515625 459.480469 450.527344 C 458.894531 450.539062 458.316406 450.605469 457.746094 450.726562 C 457.171875 450.847656 456.617188 451.023438 456.078125 451.25 C 455.539062 451.480469 455.027344 451.757812 454.542969 452.085938 C 454.058594 452.410156 453.609375 452.78125 453.195312 453.195312 C 452.78125 453.609375 452.410156 454.058594 452.085938 454.542969 C 451.757812 455.027344 451.480469 455.539062 451.25 456.078125 C 451.023438 456.617188 450.847656 457.171875 450.726562 457.746094 C 450.605469 458.316406 450.539062 458.894531 450.527344 459.480469 C 450.515625 460.066406 450.5625 460.644531 450.664062 461.222656 C 450.765625 461.796875 450.921875 462.359375 451.128906 462.90625 C 451.339844 463.449219 451.601562 463.972656 451.910156 464.46875 C 452.21875 464.964844 452.574219 465.425781 452.972656 465.855469 L 500.230469 513.109375 C 500.660156 513.519531 501.125 513.886719 501.625 514.207031 C 502.125 514.53125 502.648438 514.800781 503.203125 515.023438 C 503.753906 515.242188 504.320312 515.410156 504.902344 515.523438 C 505.488281 515.636719 506.078125 515.691406 506.671875 515.691406 C 507.265625 515.691406 507.855469 515.636719 508.4375 515.523438 C 509.019531 515.410156 509.589844 515.242188 510.140625 515.023438 C 510.691406 514.800781 511.21875 514.53125 511.71875 514.207031 C 512.21875 513.886719 512.683594 513.519531 513.113281 513.109375 C 513.535156 512.6875 513.910156 512.226562 514.242188 511.730469 C 514.574219 511.234375 514.855469 510.707031 515.085938 510.15625 C 515.3125 509.601562 515.484375 509.03125 515.601562 508.445312 C 515.71875 507.859375 515.777344 507.269531 515.777344 506.667969 C 515.777344 506.070312 515.71875 505.480469 515.601562 504.894531 C 515.484375 504.304688 515.3125 503.738281 515.085938 503.183594 C 514.855469 502.632812 514.574219 502.105469 514.242188 501.609375 C 513.910156 501.113281 513.535156 500.652344 513.113281 500.230469 Z M 465.855469 452.972656 " fill-opacity="1" fill-rule="nonzero"/><path fill="#000000" d="M 544.480469 403.042969 L 506.671875 403.042969 C 506.074219 403.042969 505.480469 403.101562 504.894531 403.214844 C 504.304688 403.332031 503.734375 403.507812 503.183594 403.734375 C 502.628906 403.964844 502.105469 404.246094 501.605469 404.578125 C 501.109375 404.910156 500.648438 405.289062 500.226562 405.710938 C 499.804688 406.132812 499.425781 406.59375 499.09375 407.09375 C 498.761719 407.589844 498.480469 408.113281 498.25 408.667969 C 498.019531 409.21875 497.847656 409.789062 497.730469 410.378906 C 497.613281 410.964844 497.554688 411.558594 497.554688 412.15625 C 497.554688 412.753906 497.613281 413.347656 497.730469 413.933594 C 497.847656 414.519531 498.019531 415.089844 498.25 415.644531 C 498.480469 416.195312 498.761719 416.722656 499.09375 417.21875 C 499.425781 417.71875 499.804688 418.175781 500.226562 418.601562 C 500.648438 419.023438 501.109375 419.402344 501.605469 419.734375 C 502.105469 420.066406 502.628906 420.347656 503.183594 420.578125 C 503.734375 420.804688 504.304688 420.976562 504.894531 421.09375 C 505.480469 421.210938 506.074219 421.269531 506.671875 421.269531 L 544.480469 421.269531 C 545.078125 421.269531 545.671875 421.210938 546.257812 421.09375 C 546.847656 420.976562 547.417969 420.804688 547.96875 420.578125 C 548.523438 420.347656 549.046875 420.066406 549.542969 419.734375 C 550.042969 419.402344 550.503906 419.023438 550.925781 418.601562 C 551.347656 418.175781 551.726562 417.71875 552.058594 417.21875 C 552.390625 416.722656 552.671875 416.195312 552.902344 415.644531 C 553.128906 415.089844 553.304688 414.519531 553.421875 413.933594 C 553.535156 413.347656 553.59375 412.753906 553.59375 412.15625 C 553.59375 411.558594 553.535156 410.964844 553.421875 410.378906 C 553.304688 409.789062 553.128906 409.21875 552.902344 408.667969 C 552.671875 408.113281 552.390625 407.589844 552.058594 407.09375 C 551.726562 406.59375 551.347656 406.132812 550.925781 405.710938 C 550.503906 405.289062 550.042969 404.910156 549.542969 404.578125 C 549.046875 404.246094 548.523438 403.964844 547.96875 403.734375 C 547.417969 403.507812 546.847656 403.332031 546.257812 403.214844 C 545.671875 403.101562 545.078125 403.042969 544.480469 403.042969 Z M 544.480469 403.042969 " fill-opacity="1" fill-rule="nonzero"/><path fill="#000000" d="M 421.269531 544.480469 L 421.269531 506.671875 C 421.269531 506.074219 421.210938 505.480469 421.09375 504.894531 C 420.976562 504.304688 420.804688 503.734375 420.578125 503.183594 C 420.347656 502.628906 420.066406 502.105469 419.734375 501.605469 C 419.402344 501.109375 419.023438 500.648438 418.601562 500.226562 C 418.175781 499.804688 417.71875 499.425781 417.21875 499.09375 C 416.722656 498.761719 416.195312 498.480469 415.644531 498.25 C 415.089844 498.019531 414.519531 497.847656 413.933594 497.730469 C 413.347656 497.613281 412.753906 497.554688 412.15625 497.554688 C 411.558594 497.554688 410.964844 497.613281 410.378906 497.730469 C 409.789062 497.847656 409.21875 498.019531 408.667969 498.25 C 408.113281 498.480469 407.589844 498.761719 407.09375 499.09375 C 406.59375 499.425781 406.132812 499.804688 405.710938 500.226562 C 405.289062 500.648438 404.910156 501.109375 404.578125 501.605469 C 404.246094 502.105469 403.964844 502.628906 403.734375 503.183594 C 403.507812 503.734375 403.332031 504.304688 403.214844 504.894531 C 403.101562 505.480469 403.042969 506.074219 403.042969 506.671875 L 403.042969 544.480469 C 403.042969 545.078125 403.101562 545.671875 403.214844 546.257812 C 403.332031 546.847656 403.507812 547.417969 403.734375 547.96875 C 403.964844 548.523438 404.246094 549.046875 404.578125 549.542969 C 404.910156 550.042969 405.289062 550.503906 405.710938 550.925781 C 406.132812 551.347656 406.59375 551.726562 407.09375 552.058594 C 407.589844 552.390625 408.113281 552.671875 408.667969 552.902344 C 409.21875 553.128906 409.789062 553.304688 410.378906 553.421875 C 410.964844 553.539062 411.558594 553.59375 412.15625 553.59375 C 412.753906 553.59375 413.347656 553.539062 413.933594 553.421875 C 414.519531 553.304688 415.089844 553.128906 415.644531 552.902344 C 416.195312 552.671875 416.722656 552.390625 417.21875 552.058594 C 417.71875 551.726562 418.175781 551.347656 418.601562 550.925781 C 419.023438 550.503906 419.402344 550.042969 419.734375 549.542969 C 420.066406 549.046875 420.347656 548.523438 420.578125 547.96875 C 420.804688 547.417969 420.976562 546.847656 421.09375 546.257812 C 421.210938 545.671875 421.269531 545.078125 421.269531 544.480469 Z M 421.269531 544.480469 " fill-opacity="1" fill-rule="nonzero"/></svg>